<svg version="1.1" id="Layer_1" xmlns="http://www.w3.org/2000/svg" xmlns:xlink="http://www.w3.org/1999/xlink" x="0px" y="0px"
	 width="100%" viewBox="0 0 1024 1024" enable-background="new 0 0 1024 1024" xml:space="preserve">
<path fill="#ffffff" opacity="1.000000" stroke="none" 
	d="
M331.938416,889.144165 
	C253.245422,844.650269 196.937119,781.295959 165.641373,696.427490 
	C156.755890,672.331665 151.342834,647.446106 148.482071,621.888550 
	C145.849487,598.369385 145.056381,574.810303 144.613724,551.194397 
	C144.292374,534.049927 143.665314,516.908508 142.949646,499.775146 
	C142.521622,489.528168 144.703903,480.879272 152.477371,473.146118 
	C208.824722,417.091339 264.850281,360.713074 320.968231,304.427734 
	C323.320374,302.068542 325.559052,299.596649 327.884888,297.210693 
	C333.596191,291.351837 338.778778,290.975586 344.907959,296.494598 
	C349.729248,300.835907 354.191162,305.583252 358.725281,310.235413 
	C394.426971,346.866394 431.465668,382.175842 466.597687,419.369995 
	C467.497192,420.322296 468.544342,421.135132 469.577240,422.062042 
	C471.166107,420.597046 470.596039,418.835419 470.601318,417.313904 
	C470.766296,369.988800 470.844391,322.663330 471.054626,275.338470 
	C471.074463,270.873108 469.625488,269.142639 464.964447,269.268372 
	C456.142090,269.506378 447.301941,269.270233 438.473938,269.044281 
	C432.952850,268.902985 427.997162,270.231232 423.358032,273.264496 
	C419.757660,275.618561 416.082489,277.856293 411.577087,278.373077 
	C402.683228,279.393341 397.415955,274.386383 393.648468,267.447998 
	C390.144989,260.995758 390.240479,253.907120 394.427124,248.015900 
	C398.676971,242.035736 404.683502,238.664597 412.826019,239.208725 
	C421.922760,239.816605 431.101898,239.145920 440.245483,239.109238 
	C454.076843,239.053726 467.909821,238.949448 481.739166,239.114288 
	C486.277435,239.168381 487.790009,237.566879 487.762939,232.975296 
	C487.593964,204.313293 487.647278,175.649673 487.731567,146.986908 
	C487.740967,143.791962 486.806396,141.384109 484.711365,138.912567 
	C474.473541,126.834831 472.488129,113.143066 478.826508,98.827255 
	C484.869598,85.178329 496.615356,78.471230 510.988495,77.940842 
	C525.698547,77.398010 537.526978,84.085480 544.705811,97.218330 
	C551.959106,110.487396 551.570374,124.044716 542.424866,136.201355 
	C538.364380,141.598801 537.202942,146.814011 537.252563,153.177902 
	C537.459412,179.672928 537.338501,206.170486 537.349915,232.667114 
	C537.352905,239.632248 537.373169,239.677841 544.124695,239.636536 
	C566.779785,239.497955 589.434570,239.860107 612.091553,239.132889 
	C623.155334,238.777771 631.280518,245.250198 632.936462,255.316360 
	C634.302307,263.619019 630.493286,270.551025 624.369385,275.519257 
	C618.594788,280.204102 611.824646,279.365082 605.786743,275.151367 
	C599.080566,270.471222 591.820007,268.660095 583.645020,269.198212 
	C576.008789,269.700836 568.321106,269.405518 560.656616,269.500153 
	C556.107544,269.556305 554.155945,271.266571 554.177002,276.446899 
	C554.389709,328.772644 554.298401,381.099640 554.292664,433.426270 
	C554.292480,434.730042 554.292664,436.033783 554.292664,438.004028 
	C557.268799,436.633698 559.090515,434.751984 560.966736,432.990051 
	C600.317017,396.036896 639.655029,359.070740 678.999634,322.111572 
	C680.456482,320.743073 681.898132,319.349335 683.445068,318.087616 
	C689.491333,313.156128 695.092957,313.143341 700.799744,318.646454 
	C710.750549,328.242310 720.756836,337.812500 730.193237,347.904541 
	C775.154053,395.989532 822.222229,441.997223 869.006470,488.266876 
	C878.751892,497.905121 881.549561,507.967346 879.865479,520.513733 
	C879.578308,522.653259 879.352661,524.824951 879.376465,526.978638 
	C879.633301,550.138489 878.339539,573.261719 877.156189,596.362061 
	C874.519409,647.834167 862.095032,696.820251 837.966614,742.588135 
	C816.074768,784.113647 786.514648,819.201965 750.423889,849.242554 
	C724.875000,870.508606 697.086487,888.046753 667.586670,902.905640 
	C635.288391,919.173889 601.113708,929.842468 565.115845,934.511108 
	C543.463196,937.319214 521.737366,939.546204 499.955139,938.222290 
	C445.988770,934.942261 393.974182,923.907349 346.285065,896.989990 
	C341.645508,894.371277 336.930939,891.885559 331.938416,889.144165 
M554.306824,646.484680 
	C554.309692,649.650024 554.442505,652.822083 554.280151,655.978882 
	C554.105164,659.380737 555.411377,660.752686 558.916931,660.716492 
	C563.379211,660.670532 567.876038,660.171021 572.308044,661.539124 
	C584.555481,665.319580 595.168762,672.276855 605.865662,678.964417 
	C610.363342,681.776245 610.508484,686.223145 607.481018,690.744141 
	C604.453735,695.264832 600.407104,696.455383 594.309570,694.778564 
	C588.248962,693.111877 583.227478,689.430969 577.934326,686.332336 
	C565.674500,679.155212 553.794922,679.898071 542.344299,687.838135 
	C533.454651,694.002441 524.833557,700.554138 516.097839,706.940186 
	C502.996246,716.517822 490.184875,716.747803 476.794250,707.612427 
	C471.292450,703.859070 465.840515,700.032410 460.322815,696.302734 
	C453.560547,691.731812 446.344299,688.775146 437.901184,689.315369 
	C427.402527,689.987000 417.766418,693.397461 408.369965,697.790894 
	C404.472412,699.613220 400.726318,701.763550 396.095215,701.420349 
	C392.624146,701.163147 390.570312,699.187988 389.083008,696.524292 
	C387.525818,693.735352 388.371368,690.991516 390.281921,688.629700 
	C392.390320,686.023132 394.922363,683.834595 397.749146,682.045532 
	C411.679871,673.228455 425.846619,665.185547 443.394440,668.668945 
	C450.483246,670.076111 456.971771,673.061646 463.462616,676.084900 
	C465.498810,677.033264 467.343292,678.719971 470.077393,678.262451 
	C470.325439,677.684814 470.793701,677.101624 470.795410,676.517029 
	C470.860687,654.361145 470.890442,632.205139 470.901947,610.049133 
	C470.903381,607.267639 469.246277,606.427002 466.670654,606.342407 
	C463.141205,606.226501 459.717407,606.981628 456.242493,607.231079 
	C432.002716,608.971008 408.050079,612.629822 384.484497,618.497009 
	C358.887604,624.869873 334.037354,633.323792 311.457520,647.376038 
	C300.653625,654.099609 290.298157,661.327637 284.274872,673.164246 
	C280.236877,681.099548 280.466675,682.862366 286.619354,689.400146 
	C297.879333,701.364807 311.422668,710.068665 326.263733,716.735291 
	C373.114563,737.780701 422.792297,746.866272 473.607880,750.538818 
	C497.681152,752.278687 521.814209,752.239319 545.960083,750.843140 
	C574.036194,749.219604 601.828003,745.687561 629.243896,739.551025 
	C658.732910,732.950439 687.414062,723.953491 713.483032,708.121582 
	C724.089905,701.679932 733.670776,694.018799 741.105835,683.904541 
	C743.776917,680.270996 743.989502,676.841492 741.773499,672.825562 
	C737.681091,665.409241 732.605774,659.039185 725.489136,654.246826 
	C712.859070,645.741882 699.452148,638.774719 685.287048,633.256226 
	C656.344666,621.980713 626.228638,615.225586 595.632080,610.529480 
	C583.663086,608.692383 571.558411,607.740967 559.516663,606.375366 
	C555.649902,605.936829 554.177185,607.554382 554.239929,611.501709 
	C554.419922,622.828796 554.306396,634.160461 554.306824,646.484680 
M444.840637,809.990173 
	C422.100128,807.126587 399.548309,803.271606 377.361572,797.414673 
	C339.509705,787.422363 303.125885,773.984192 270.273102,752.165894 
	C269.258331,751.492004 268.266266,750.265198 266.766876,751.231750 
	C266.248688,752.951782 267.375549,754.140503 268.025452,755.424805 
	C282.822479,784.665527 302.706238,809.899048 328.279755,830.407471 
	C375.165375,868.006958 429.736755,885.579773 488.825836,890.505554 
	C510.385986,892.302856 532.005432,891.301208 553.551025,888.766602 
	C584.326172,885.146179 613.977417,877.571472 641.993347,864.226318 
	C688.939941,841.863647 726.836548,809.454712 752.443787,763.629944 
	C754.580139,759.806824 756.930908,755.998413 757.795227,751.488220 
	C754.976807,750.771912 753.659485,752.586426 752.122559,753.670593 
	C733.219116,767.006348 712.652832,777.156372 691.066589,785.257324 
	C638.158691,805.112610 583.007874,812.521362 526.901550,814.321594 
	C499.741364,815.193115 472.713135,812.950562 444.840637,809.990173 
M318.943359,734.684448 
	C303.035400,727.183167 287.908203,718.359680 275.274597,706.014038 
	C261.591919,692.643127 254.759140,676.705017 259.663177,657.219238 
	C262.829773,644.637024 270.988251,635.556458 280.668335,627.591492 
	C299.352600,612.217712 321.053650,602.593933 343.587555,594.501892 
	C382.940491,580.370178 423.833221,574.897644 465.307800,572.719849 
	C469.095032,572.520996 470.882782,571.291565 470.671783,567.399414 
	C470.527618,564.740784 470.651642,562.067749 470.652924,559.401123 
	C470.656311,552.393250 470.634308,552.040161 463.888000,552.448242 
	C450.616089,553.251099 437.336731,554.177185 424.120911,555.609802 
	C396.608154,558.592163 369.855194,565.101318 343.402863,573.173157 
	C317.774353,580.993713 293.016998,590.477661 271.208618,606.465149 
	C262.587341,612.785339 254.318924,619.491882 247.879883,628.169861 
	C237.305939,642.420349 231.858673,657.841858 236.266373,675.809143 
	C241.893097,698.745544 255.951401,715.447266 274.819244,728.639587 
	C308.355530,752.088074 346.018158,765.958435 385.404663,775.524475 
	C414.647827,782.626831 444.293518,787.219666 474.421997,788.883545 
	C490.723083,789.783875 507.050323,790.501770 523.320801,790.333923 
	C538.740967,790.174866 554.215149,789.389526 569.641357,787.851807 
	C590.160278,785.806396 610.510742,782.926575 630.654602,778.608154 
	C667.526306,770.703613 702.725769,758.411682 734.948486,738.410339 
	C753.394836,726.960083 770.189514,713.851013 781.045959,694.397461 
	C794.655090,670.011230 791.068604,642.051208 771.364075,622.291809 
	C753.981506,604.860901 732.614014,593.742859 710.265137,584.237732 
	C662.170227,563.782532 611.260864,556.652954 559.739868,552.375427 
	C555.597168,552.031494 553.856262,553.573425 554.252686,557.760315 
	C554.471741,560.073059 554.299133,562.423218 554.297974,564.756470 
	C554.294678,571.539124 554.687134,572.154175 561.512390,572.554382 
	C580.607056,573.673950 599.522949,576.314087 618.295593,579.754272 
	C651.081543,585.762451 683.319397,593.743835 713.247986,609.091980 
	C730.090210,617.729065 746.421814,627.094604 757.836792,642.839966 
	C764.885437,652.562500 767.398804,663.439941 765.597717,675.422424 
	C763.917603,686.600037 758.578674,695.749512 750.969482,703.779785 
	C737.780212,717.699158 721.530212,727.145508 704.348389,735.053955 
	C653.416626,758.497009 599.311829,768.636414 543.789795,771.083374 
	C501.036499,772.967590 458.288330,771.384888 416.013458,763.377380 
	C382.932007,757.111206 350.472015,748.821411 318.943359,734.684448 
M208.521912,467.950958 
	C219.473892,462.676575 230.358810,457.256256 241.402328,452.181061 
	C248.327209,448.998688 250.212234,450.075012 252.897324,457.302521 
	C254.139511,460.646118 254.486740,464.397736 256.817932,467.121338 
	C258.504791,467.159790 259.295349,466.222595 260.034302,465.365326 
	C266.224396,458.184143 272.452454,451.033478 278.522461,443.751465 
	C288.862030,431.347382 299.117645,418.872955 309.356750,406.385620 
	C311.883423,403.304199 314.055542,403.061310 316.307617,406.628845 
	C317.905518,409.160095 319.799133,411.508972 321.335083,414.074341 
	C334.678589,436.360809 347.954193,458.687927 361.311890,480.965881 
	C362.334106,482.670776 362.838226,485.141052 365.546417,485.196960 
	C367.157257,483.808380 366.662201,482.046509 366.664368,480.438141 
	C366.672974,474.106934 366.598297,467.775574 366.604034,461.444336 
	C366.609558,455.314514 369.255188,453.297058 375.166077,455.354767 
	C379.392517,456.826050 383.584351,458.578705 387.497253,460.738983 
	C413.299377,474.983734 439.212921,489.034973 464.437103,504.304077 
	C466.042938,505.276123 467.582123,506.889404 469.863770,506.259155 
	C471.352814,504.524384 470.910767,502.436157 470.925110,500.508698 
	C470.982178,492.844849 470.806000,485.177765 470.959869,477.516785 
	C471.025421,474.251923 469.921478,471.879547 467.619690,469.601257 
	C450.213928,452.373535 432.834442,435.117645 415.628387,417.691254 
	C412.361725,414.382751 409.720551,414.208405 406.212494,416.978546 
	C402.035553,420.276886 397.786407,423.534637 393.284576,426.357025 
	C388.184387,429.554596 386.623901,429.026154 383.818878,423.847046 
	C380.966797,418.580994 378.195465,413.264099 375.597046,407.869141 
	C364.028961,383.851196 350.804321,360.724518 337.740814,337.515442 
	C333.365631,329.742401 332.812622,329.816772 326.442963,336.167358 
	C298.837311,363.690308 271.243896,391.225555 243.669373,418.779724 
	C226.235565,436.200653 208.159134,452.998657 192.143112,471.796204 
	C191.161346,472.948456 189.408844,473.776306 190.132553,476.470856 
	C196.161545,473.682892 202.003860,470.981232 208.521912,467.950958 
M499.486450,692.044067 
	C508.170288,686.163269 516.753723,680.125854 525.579468,674.466370 
	C530.126465,671.550659 531.774597,668.003357 531.767639,662.521667 
	C531.615173,541.693481 531.651672,420.865082 531.650879,300.036743 
	C531.650818,291.870422 531.510132,283.701233 531.692322,275.539093 
	C531.777954,271.699554 530.493896,270.172577 526.508057,270.280518 
	C518.014465,270.510468 509.510651,270.362305 501.011017,270.363861 
	C493.360016,270.365265 493.351562,270.362183 493.351471,278.061005 
	C493.349670,413.555420 493.350006,549.049866 493.350250,684.544250 
	C493.350250,685.544189 493.388092,686.545349 493.351837,687.543884 
	C493.212524,691.381714 494.775269,693.260681 499.486450,692.044067 
M659.756226,377.257172 
	C627.919495,406.817596 596.243958,436.555084 564.120239,465.800262 
	C557.063721,472.224457 552.865051,478.620514 554.151001,488.490540 
	C554.969543,494.772858 554.304077,501.248535 554.304077,507.914734 
	C557.470642,507.013397 559.212036,505.482147 561.007568,504.011383 
	C579.935303,488.506958 598.407715,472.435883 618.287231,458.116638 
	C628.282349,450.917114 638.177185,443.578186 648.176331,436.384338 
	C653.107422,432.836700 654.011108,433.126282 656.499023,438.748138 
	C657.573547,441.176239 658.409302,443.710022 659.354614,446.195343 
	C661.767273,452.538574 663.179871,452.915985 667.792542,448.129669 
	C675.308655,440.330444 682.407837,432.158691 688.608521,423.264526 
	C691.089966,419.705170 693.253052,418.928925 697.081482,421.857910 
	C712.426880,433.597961 727.002502,446.263733 741.921997,458.514832 
	C746.844849,462.557220 751.408203,467.091248 756.955627,470.482178 
	C758.416748,468.041321 757.007935,466.485107 756.355713,464.883575 
	C751.806213,453.712006 744.985046,443.846863 738.626831,433.681427 
	C722.654114,408.144592 707.990051,381.807159 691.668335,356.479095 
	C688.464600,351.507507 687.927185,351.469788 683.481018,355.531921 
	C675.738770,362.605499 668.001587,369.684753 659.756226,377.257172 
z"/>
<path fill="#ffffff" opacity="1.000000" stroke="none" 
	d="
M354.262573,671.548462 
	C359.205811,674.435486 363.376587,677.693176 366.948517,681.700439 
	C369.237335,684.268250 370.299011,687.224060 368.739441,690.395813 
	C367.039764,693.852600 363.574127,693.993835 360.465302,693.247559 
	C357.114014,692.442932 353.867615,691.028809 350.726044,689.558777 
	C343.853607,686.342957 336.792969,685.649170 329.353577,686.961121 
	C326.277649,687.503479 323.061951,687.236816 319.911560,687.377808 
	C316.333984,687.537903 313.709686,686.019165 312.495636,682.687378 
	C311.229858,679.213684 312.903503,676.430542 315.587799,674.465576 
	C326.270416,666.645874 337.828156,664.609741 350.316223,669.693481 
	C351.545013,670.193665 352.722321,670.820312 354.262573,671.548462 
z"/>
<path fill="#ffffff" opacity="1.000000" stroke="none" 
	d="
M686.082581,681.324829 
	C682.253113,681.495605 678.919067,681.389648 675.804871,679.992493 
	C671.831238,678.209778 670.692566,674.827881 672.751160,670.948181 
	C675.432556,665.894836 680.415405,664.087341 685.413574,662.902283 
	C694.772644,660.683167 703.520020,662.858215 711.656921,667.783325 
	C714.040283,669.225952 715.563843,671.280029 716.434692,673.942871 
	C718.143250,679.167847 715.828735,682.844910 710.293152,683.276184 
	C707.815796,683.469299 705.339905,683.421387 702.861389,682.768127 
	C697.526978,681.362061 692.091187,680.717957 686.082581,681.324829 
z"/>
<path fill="#ffffff" opacity="1.000000" stroke="none" 
	d="
M620.854126,663.805908 
	C615.748718,659.560974 615.717712,655.094543 620.380676,651.109924 
	C628.722168,643.981934 648.685059,645.563416 655.911926,654.000427 
	C658.086304,656.538879 659.128418,659.374268 657.367920,662.715271 
	C655.627747,666.017822 652.647705,667.262085 649.425842,666.531616 
	C640.117310,664.421021 630.672852,664.399597 620.854126,663.805908 
z"/>
<path fill="#ffffff" opacity="1.000000" stroke="none" 
	d="
M646.977173,709.269287 
	C642.994080,709.294861 639.505493,709.363098 636.016968,709.356812 
	C629.352661,709.344849 626.717651,705.113525 629.388794,698.768127 
	C631.094543,694.716003 634.531128,692.720581 638.460144,691.637024 
	C645.940918,689.573730 653.250366,690.165161 660.119263,693.977295 
	C663.331299,695.759888 666.025757,698.254089 665.134094,702.286621 
	C664.218201,706.428955 661.009094,708.716309 656.929016,709.214722 
	C653.820374,709.594543 650.627197,709.282593 646.977173,709.269287 
z"/>
<path fill="#ffffff" opacity="1.000000" stroke="none" 
	d="
M368.254669,661.285156 
	C366.945648,660.816895 365.918091,660.565735 365.160156,659.971069 
	C362.123199,657.587891 358.846497,655.074768 359.896973,650.609192 
	C360.958984,646.094543 364.590240,643.666077 368.805939,642.883240 
	C374.310883,641.861084 379.730957,642.888916 384.582947,645.867798 
	C387.418701,647.608887 389.363037,650.221436 389.103302,653.637695 
	C388.840057,657.100403 386.490723,659.203735 383.272369,660.379456 
	C378.487823,662.127319 373.644623,662.743347 368.254669,661.285156 
z"/>
<path fill="#ffffff" opacity="1.000000" stroke="none" 
	d="
M570.473145,712.706665 
	C574.241455,712.684875 577.572693,712.508057 580.875854,712.737244 
	C585.646973,713.068298 588.984741,716.456055 589.345154,720.946960 
	C589.761353,726.133606 588.266907,728.252930 582.674500,729.664734 
	C577.468872,730.978821 572.115295,730.781250 566.864563,730.100220 
	C563.742920,729.695374 561.334412,727.656860 560.796814,724.314209 
	C560.219421,720.724243 560.610229,717.314087 564.031311,715.041870 
	C565.858582,713.828186 567.906738,713.192810 570.473145,712.706665 
z"/>
<path fill="#ffffff" opacity="1.000000" stroke="none" 
	d="
M603.320496,639.736572 
	C603.028870,643.427734 600.851501,645.099854 598.111206,646.205750 
	C593.637512,648.011292 588.946655,647.697144 584.389282,646.934143 
	C581.487305,646.448303 579.316895,644.305298 578.812988,641.229004 
	C578.226685,637.649658 578.684326,634.310791 581.956055,631.887573 
	C586.235107,628.718384 595.434998,628.262939 599.989136,631.075623 
	C603.139465,633.021423 603.591309,636.007568 603.320496,639.736572 
z"/>
<path fill="#ffffff" opacity="1.000000" stroke="none" 
	d="
M406.412781,646.546814 
	C402.057709,639.277649 405.417114,632.635925 413.878448,630.974487 
	C420.605408,629.653564 428.120270,634.619446 428.324890,640.520813 
	C428.515442,646.015564 425.861237,649.194946 419.721039,650.139343 
	C415.005493,650.864624 410.409882,650.356506 406.412781,646.546814 
z"/>
<path fill="#ffffff" opacity="1.000000" stroke="none" 
	d="
M455.423889,649.844971 
	C448.616699,647.609863 446.095123,643.516968 447.986969,638.283020 
	C449.581268,633.872192 455.541962,631.619080 460.557312,633.476746 
	C464.446747,634.917419 466.448914,637.677429 466.284088,641.802979 
	C466.126068,645.757385 463.817566,648.166138 460.163757,649.326538 
	C458.765533,649.770569 457.352844,650.412048 455.423889,649.844971 
z"/>
<path fill="#ffffff" opacity="1.000000" stroke="none" 
	d="
M504.201477,501.439087 
	C499.408966,500.186676 497.122437,494.005524 499.416351,488.333160 
	C501.806580,482.422577 505.636993,486.406982 509.706726,487.563843 
	C510.700348,429.726074 507.895599,372.007324 513.113159,314.431122 
	C514.867004,314.655609 515.154968,315.515045 515.156616,316.313934 
	C515.372864,422.266479 515.680237,528.219421 514.876953,634.170105 
	C514.850403,637.673035 515.346375,641.895874 512.113037,645.601440 
	C509.821075,639.326477 510.052856,633.151672 510.024933,627.157104 
	C509.837921,587.006653 509.876160,546.855042 509.841644,506.703857 
	C509.840088,504.876587 509.841461,503.049347 509.841461,500.858551 
	C507.925537,501.048584 506.227509,501.216980 504.201477,501.439087 
z"/>
</svg>